<?xml version="1.0" standalone="no"?>
<!DOCTYPE svg PUBLIC "-//W3C//DTD SVG 20010904//EN"
 "http://www.w3.org/TR/2001/REC-SVG-20010904/DTD/svg10.dtd">
<svg version="1.0" xmlns="http://www.w3.org/2000/svg"
 width="435.000000pt" height="200.000000pt" viewBox="0 0 435.000000 200.000000"
 preserveAspectRatio="xMidYMid meet">

<g transform="translate(0.000000,200.000000) scale(0.100000,-0.100000)"
fill="#000000" stroke="none">
<path d="M2400 1100 l0 -900 381 0 c237 0 379 4 377 10 -1 5 -48 50 -103 99
l-100 91 -177 0 -178 0 0 700 0 700 100 0 100 0 2 -362 3 -363 330 321 c182
176 351 339 376 362 l47 43 140 -3 140 -3 -202 -190 c-695 -655 -826 -780
-823 -789 2 -6 151 -147 332 -313 l329 -303 433 0 c256 0 433 4 433 9 0 13
-790 736 -805 736 -7 0 -42 -28 -78 -62 l-67 -62 198 -182 c108 -100 210 -195
227 -210 l30 -29 -148 0 -147 0 -225 206 c-124 114 -225 210 -223 215 3 8 84
85 841 797 213 200 387 368 387 373 0 5 -185 9 -427 9 l-428 0 -230 -215
c-126 -118 -233 -214 -237 -215 -5 0 -8 97 -8 215 l0 215 -300 0 -300 0 0
-900z"/>
<path d="M1219 1877 l-66 -114 303 -524 303 -524 -284 -3 -284 -2 -66 -111
c-36 -61 -65 -113 -65 -115 0 -2 249 -4 554 -4 l554 0 -436 755 c-240 415
-439 755 -442 755 -3 0 -35 -51 -71 -113z"/>
<path d="M830 1203 c-162 -280 -358 -620 -437 -756 l-142 -248 137 3 137 3
297 515 c164 283 302 516 307 518 5 2 71 -105 147 -238 l139 -240 132 0 c73 0
133 2 133 5 0 10 -541 940 -548 943 -5 1 -141 -226 -302 -505z"/>
<path d="M848 682 l-274 -477 870 -3 c478 -1 871 0 874 2 2 3 -24 55 -59 115
l-63 111 -608 0 c-334 0 -608 2 -608 6 0 3 63 115 141 250 l141 244 -62 110
c-34 60 -65 112 -69 115 -5 2 -132 -210 -283 -473z"/>
</g>
</svg>
